<?xml version="1.0" encoding="utf-8"?>
<!-- Generator: Adobe Illustrator 25.2.3, SVG Export Plug-In . SVG Version: 6.00 Build 0)  -->
<svg version="1.1" id="Layer_1" xmlns="http://www.w3.org/2000/svg" xmlns:xlink="http://www.w3.org/1999/xlink" x="0px" y="0px"
	 viewBox="0 0 12 12" style="enable-background:new 0 0 12 12;" xml:space="preserve">
<g>
	<path d="M11,0H7v1h3.38L3.67,7.71c-0.2,0.2-0.2,0.51,0,0.71c0.1,0.1,0.23,0.15,0.35,0.15s0.26-0.05,0.35-0.15L11,1.79V5h1V1
		C12,0.45,11.55,0,11,0z"/>
	<path d="M11,11H1V1h4V0H1C0.45,0,0,0.45,0,1v10c0,0.55,0.45,1,1,1h10c0.55,0,1-0.45,1-1V7h-1V11z"/>
</g>
</svg>
